<svg xmlns="http://www.w3.org/2000/svg" width="204.424" height="238.382" viewBox="0 0 204.424 238.382">
  <g id="certification" opacity="0.7">
    <path id="Path_8593" data-name="Path 8593" d="M262.424,38.884,219.312,0H91.038V126.768C72.559,128.191,58,142.2,58,159.232c0,9.777,4.805,18.556,12.389,24.535v54.616H78.9L94.136,224.64l15.236,13.742h8.51V214.172H262.424Zm-41.3-29.346,30.723,27.71H221.126ZM64.195,159.232c0-14.89,13.432-27,29.941-27s29.941,12.114,29.941,27-13.432,27-29.941,27S64.195,174.122,64.195,159.232Zm29.941,57.507-17.552,15.83V187.707a39.473,39.473,0,0,0,35.1,0v44.862Zm23.746-8.155V183.767c7.584-5.979,12.389-14.757,12.389-24.535,0-17.029-14.559-31.04-33.038-32.464V5.587h117.7V42.834h41.3v165.75Z" transform="translate(-58)" fill="rgba(142,121,246,0.49)"/>
    <path id="Path_8594" data-name="Path 8594" d="M176,64h54.175v6.772H176Z" transform="translate(-116.902 -27.883)" fill="rgba(142,121,246,0.49)"/>
    <path id="Path_8595" data-name="Path 8595" d="M176,96h36.117v6.772H176Z" transform="translate(-116.18 -51.531)" fill="rgba(142,121,246,0.49)"/>
    <path id="Path_8596" data-name="Path 8596" d="M176,144H302.409v6.772H176Z" transform="translate(-128.458 -77.296)" fill="rgba(142,121,246,0.49)"/>
    <path id="Path_8597" data-name="Path 8597" d="M176,176H302.409v6.772H176Z" transform="translate(-128.458 -94.473)" fill="rgba(142,121,246,0.49)"/>
    <path id="Path_8598" data-name="Path 8598" d="M176,240H302.409v6.772H176Z" transform="translate(-128.458 -128.827)" fill="rgba(142,121,246,0.49)"/>
    <path id="Path_8599" data-name="Path 8599" d="M208,272h90.292v6.772H208Z" transform="translate(-135.458 -146.004)" fill="rgba(142,121,246,0.49)"/>
    <path id="Path_8600" data-name="Path 8600" d="M176,208H302.409v6.772H176Z" transform="translate(-128.458 -111.65)" fill="rgba(142,121,246,0.49)"/>
    <path id="Path_8601" data-name="Path 8601" d="M304,320h54.175v6.772H304Z" transform="translate(-184.225 -171.769)" fill="rgba(142,121,246,0.49)"/>
    <path id="Path_8602" data-name="Path 8602" d="M336,352h36.117v6.772H336Z" transform="translate(-198.166 -188.946)" fill="rgba(142,121,246,0.49)"/>
    <path id="Path_8603" data-name="Path 8603" d="M111.444,346.889A21.444,21.444,0,1,0,90,325.444,21.469,21.469,0,0,0,111.444,346.889Zm0-36.117a14.672,14.672,0,1,1-14.672,14.672A14.689,14.689,0,0,1,111.444,310.772Z" transform="translate(-71.942 -167.693)" fill="rgba(142,121,246,0.49)"/>
  </g>
</svg>
