<svg xmlns="http://www.w3.org/2000/svg" width="167.236" height="208.841" viewBox="0 0 167.236 208.841">
  <g id="grade" opacity="0.7">
    <path id="Path_8616" data-name="Path 8616" d="M216.443,42.581,175.654,1.792A6.118,6.118,0,0,0,171.328,0H57.118A6.119,6.119,0,0,0,51,6.118v196.6a6.119,6.119,0,0,0,6.118,6.118h155a6.119,6.119,0,0,0,6.118-6.118V46.908A6.118,6.118,0,0,0,216.443,42.581Zm-39-21.692,19.9,19.9h-19.9ZM63.237,196.6V12.237H165.21V46.908a6.119,6.119,0,0,0,6.118,6.118H206V196.6Z" transform="translate(-51 0)" fill="rgba(142,121,246,0.49)"/>
    <path id="Path_8617" data-name="Path 8617" d="M306.065,420H257.118a6.118,6.118,0,1,0,0,12.237h48.947a6.118,6.118,0,1,0,0-12.237Z" transform="translate(-169.422 -248.685)" fill="rgba(142,121,246,0.49)"/>
    <path id="Path_8618" data-name="Path 8618" d="M306.065,360H257.118a6.118,6.118,0,0,0,0,12.237h48.947a6.118,6.118,0,0,0,0-12.237Z" transform="translate(-169.422 -213.159)" fill="rgba(142,121,246,0.49)"/>
    <path id="Path_8619" data-name="Path 8619" d="M267.118,167.434H271.2v4.079a6.118,6.118,0,1,0,12.237,0v-4.079h4.079a6.118,6.118,0,0,0,0-12.237h-4.079v-4.079a6.118,6.118,0,0,0-12.237,0V155.2h-4.079a6.118,6.118,0,0,0,0,12.237Z" transform="translate(-175.343 -85.856)" fill="rgba(142,121,246,0.49)"/>
    <path id="Path_8620" data-name="Path 8620" d="M175.145,195.142,152.38,134.817c-.021-.056-.043-.112-.066-.168a7.479,7.479,0,0,0-6.941-4.65h-.008a7.479,7.479,0,0,0-6.939,4.664c-.019.046-.037.092-.055.138L115.4,195.124a6.118,6.118,0,1,0,11.436,4.355l4.221-11.082h28.467l4.176,11.065a6.118,6.118,0,0,0,11.449-4.32ZM135.714,176.16l9.638-25.306,9.55,25.306Z" transform="translate(-88.892 -76.974)" fill="rgba(142,121,246,0.49)"/>
  </g>
</svg>
