<svg xmlns="http://www.w3.org/2000/svg" width="227.671" height="227.677" viewBox="0 0 227.671 227.677">
  <g id="money" opacity="0.7">
    <g id="Group_19" data-name="Group 19" transform="translate(30.237 200.996)">
      <g id="Group_18" data-name="Group 18">
        <path id="Path_8613" data-name="Path 8613" d="M75.593,453.3a4.443,4.443,0,1,0,1.3,3.144A4.477,4.477,0,0,0,75.593,453.3Z" transform="translate(-68.003 -452.001)" fill="rgba(142,121,246,0.49)"/>
      </g>
    </g>
    <g id="Group_21" data-name="Group 21" transform="translate(201.194 80.046)">
      <g id="Group_20" data-name="Group 20">
        <path id="Path_8614" data-name="Path 8614" d="M460.045,181.311a4.434,4.434,0,1,0,1.307,3.144A4.471,4.471,0,0,0,460.045,181.311Z" transform="translate(-452.454 -180.008)" fill="rgba(142,121,246,0.49)"/>
      </g>
    </g>
    <g id="Group_23" data-name="Group 23" transform="translate(0)">
      <g id="Group_22" data-name="Group 22">
        <path id="Path_8615" data-name="Path 8615" d="M226.375,1.3A4.449,4.449,0,0,0,223.23,0L113.841.006a4.447,4.447,0,0,0-4.446,4.447V17.169L67.244,28.464A4.447,4.447,0,0,0,64.1,33.91l21.846,81.529-18.9,18.9a13.335,13.335,0,0,0-11.012-5.822H13.347a13.355,13.355,0,0,0-13.34,13.34v72.481a13.355,13.355,0,0,0,13.34,13.34H56.035a13.362,13.362,0,0,0,12.947-10.13l5.287,4.611A22.4,22.4,0,0,0,89,227.677H223.231a4.447,4.447,0,0,0,4.447-4.447V4.447A4.451,4.451,0,0,0,226.375,1.3ZM60.481,214.337a4.452,4.452,0,0,1-4.447,4.447H13.347A4.452,4.452,0,0,1,8.9,214.337V141.855a4.452,4.452,0,0,1,4.447-4.447h16.9v51.225a4.447,4.447,0,1,0,8.894,0V137.409h16.9a4.452,4.452,0,0,1,4.447,4.447v72.481ZM73.841,35.9l35.554-9.527V42.854l-2.98.8A4.447,4.447,0,0,0,103.27,49.1,11.987,11.987,0,0,1,94.8,63.763a4.447,4.447,0,0,0-3.142,5.455L109,133.4H100.07l-4.6-17.994a4.44,4.44,0,0,0-.745-1.559Zm35.554,27.343v37.523l-8.111-30.032A20.832,20.832,0,0,0,109.395,63.246ZM173.28,218.783H89a13.513,13.513,0,0,1-8.882-3.328l-10.739-9.365v-61.5l19.414-19.414,3.521,13.776a4.446,4.446,0,0,0,4.308,3.345l87.426.005a6.226,6.226,0,1,1,0,12.451h-44.8a4.447,4.447,0,0,0,0,8.894h58.716a6.226,6.226,0,1,1,0,12.451H139.247a4.447,4.447,0,0,0,0,8.894h49.2a6.226,6.226,0,0,1,0,12.451h-49.2a4.447,4.447,0,1,0,0,8.894H173.28a6.225,6.225,0,1,1,0,12.449Zm45.5,0H187.052a15.065,15.065,0,0,0,0-12.451h1.4a15.109,15.109,0,0,0,13.514-21.885,15.106,15.106,0,0,0,8.135-23.585V104.5a4.447,4.447,0,0,0-8.894,0v50.6a15.123,15.123,0,0,0-3.241-.354h-.146a15.109,15.109,0,0,0-13.772-21.344H176.9a21.281,21.281,0,1,0-16.72,0H135.868V48.854A20.933,20.933,0,0,0,151.81,32.911H185.26A20.933,20.933,0,0,0,201.2,48.854V62.679a4.447,4.447,0,1,0,8.894,0v-17.8a4.447,4.447,0,0,0-4.447-4.447,11.986,11.986,0,0,1-11.973-11.973,4.447,4.447,0,0,0-4.447-4.447H147.841a4.447,4.447,0,0,0-4.447,4.447,11.986,11.986,0,0,1-11.973,11.973,4.447,4.447,0,0,0-4.447,4.447v88.522h-8.685V8.9l100.5,0Zm-50.248-92.557a12.388,12.388,0,1,1,12.387-12.388A12.4,12.4,0,0,1,168.536,126.226Z" transform="translate(-0.007)" fill="rgba(142,121,246,0.49)"/>
      </g>
    </g>
  </g>
</svg>
