<svg xmlns="http://www.w3.org/2000/svg" width="90.798" height="130.524" viewBox="0 0 90.798 130.524">
  <g id="advisor" transform="translate(-73.777 -34.049)">
    <path id="Path_11051" data-name="Path 11051" d="M329.029,302.387V299.3a22.518,22.518,0,0,1-17.025,0v3.09l8.512,6.384Zm0,0" transform="translate(-201.34 -193.143)" fill="rgba(255,108,29,0.37)"/>
    <path id="Path_11052" data-name="Path 11052" d="M398.645,208v11.35a22.566,22.566,0,0,1-.747,5.675h3.584a8.512,8.512,0,0,0,0-17.025Zm0,0" transform="translate(-256.77 -134.227)" fill="rgba(255,108,29,0.37)"/>
    <path id="Path_11053" data-name="Path 11053" d="M297.723,321l1.5,9.021,7-4.2-6.918-5.19Zm0,0" transform="translate(-192.125 -206.911)" fill="rgba(255,108,29,0.37)"/>
    <path id="Path_11054" data-name="Path 11054" d="M261.679,130.049v-5.675h5.675v5.675h.488a16.651,16.651,0,0,0,11.693-4.844l4.012,4.012c-.108.108-.23.2-.344.309a16.64,16.64,0,0,0,7.681-4.321l4.012,4.012c-.108.108-.23.2-.344.309a16.669,16.669,0,0,0,6.85-3.569v-1.584h5.675v5.675h2.837a14.191,14.191,0,0,1,2.837.287v-5.962a28.374,28.374,0,0,0-56.749,0v5.962a14.2,14.2,0,0,1,2.837-.287Zm0,0" transform="translate(-165.202 -61.951)" fill="rgba(255,108,29,0.37)"/>
    <path id="Path_11055" data-name="Path 11055" d="M321.06,219.8a16.873,16.873,0,0,0,.993-5.675V199.91a22.3,22.3,0,0,1-10.862,2.869h-3.325v-1.535a22.176,22.176,0,0,1-8.025,1.535h-3.325v-1.535a22.176,22.176,0,0,1-8.025,1.535H288v11.35a17,17,0,0,0,29.679,11.35H305.028V219.8Zm0,0" transform="translate(-185.853 -129.006)" fill="rgba(255,108,29,0.37)"/>
    <path id="Path_11056" data-name="Path 11056" d="M287.807,328.795l-14.88-3.433-3.345,16.729L253.4,332.382l-16.3,9.78-2.814-16.9L219,328.792a14.127,14.127,0,0,0-11,13.827v31.856h14.187V343.263h5.675v31.212H278.94V343.263h5.675v31.212H298.8V342.619a14.121,14.121,0,0,0-11-13.824Zm0,0" transform="translate(-134.227 -209.901)" fill="rgba(255,108,29,0.37)"/>
    <path id="Path_11057" data-name="Path 11057" d="M248.516,225.025H252.1a22.567,22.567,0,0,1-.747-5.675V208h-2.837a8.512,8.512,0,0,0,0,17.025Zm0,0" transform="translate(-154.877 -134.227)" fill="rgba(255,108,29,0.37)"/>
    <path id="Path_11058" data-name="Path 11058" d="M359.24,321.1l-2-.463-6.915,5.19,7.116,4.267Zm0,0" transform="translate(-226.069 -206.912)" fill="rgba(255,108,29,0.37)"/>
  </g>
</svg>
