<svg xmlns="http://www.w3.org/2000/svg" width="232.727" height="232.698" viewBox="0 0 232.727 232.698">
  <g id="globe" opacity="0.55">
    <path id="Path_8621" data-name="Path 8621" d="M198.623,34.107A115.576,115.576,0,0,0,117.049.037c-.12,0-.239-.006-.359,0a116.347,116.347,0,1,0,81.933,34.074ZM123.168,213.024V171.346a102.277,102.277,0,0,1,30.619,6.8A127.725,127.725,0,0,1,123.168,213.024Zm0-55.336V123.2h47.77A120.311,120.311,0,0,1,160.16,166,115.88,115.88,0,0,0,123.168,157.688Zm0-48.126V75.071a115.886,115.886,0,0,0,36.993-8.314,120.328,120.328,0,0,1,10.778,42.8Zm0-48.149V19.736a127.725,127.725,0,0,1,30.619,34.873A102.278,102.278,0,0,1,123.168,61.413Zm17.148-44.919a102.481,102.481,0,0,1,41.967,21.19,102.663,102.663,0,0,1-16.124,11.1A141.532,141.532,0,0,0,140.316,16.494Zm-30.783,3.968V61.413A102.313,102.313,0,0,1,79.656,54.9a127.744,127.744,0,0,1,29.878-34.437Zm-42.3,28.7A102.665,102.665,0,0,1,50.418,37.684,102.463,102.463,0,0,1,93.606,16.206,141.525,141.525,0,0,0,67.231,49.165Zm42.3,25.907v34.491H62.675a120.283,120.283,0,0,1,10.639-42.5,115.9,115.9,0,0,0,36.219,8.007Zm0,48.125v34.491a115.9,115.9,0,0,0-36.219,8.007,120.285,120.285,0,0,1-10.639-42.5Zm0,48.15V212.3A127.745,127.745,0,0,1,79.656,177.86,102.312,102.312,0,0,1,109.533,171.346ZM93.606,216.553a102.458,102.458,0,0,1-43.188-21.478,102.662,102.662,0,0,1,16.814-11.481A141.526,141.526,0,0,0,93.606,216.553Zm72.554-32.58a102.642,102.642,0,0,1,16.124,11.1,102.481,102.481,0,0,1-41.967,21.19A141.557,141.557,0,0,0,166.16,183.973Zm6.295-12.108a133.91,133.91,0,0,0,12.14-48.668h34.239a102.335,102.335,0,0,1-26.66,62.4A116.4,116.4,0,0,0,172.455,171.865Zm46.38-62.3H184.595a133.9,133.9,0,0,0-12.14-48.668,116.4,116.4,0,0,0,19.72-13.732A102.334,102.334,0,0,1,218.834,109.562ZM40.526,47.162A116.327,116.327,0,0,0,60.981,61.288a133.865,133.865,0,0,0-11.962,48.274H13.867A102.334,102.334,0,0,1,40.526,47.162ZM13.867,123.2H49.019a133.865,133.865,0,0,0,11.962,48.274A116.327,116.327,0,0,0,40.526,185.6a102.332,102.332,0,0,1-26.66-62.4Z" transform="translate(0 -0.032)" fill="rgba(142,121,246,0.49)"/>
  </g>
</svg>
