<svg xmlns="http://www.w3.org/2000/svg" width="257.53" height="231.375" viewBox="0 0 257.53 231.375">
  <g id="speech-bubble" opacity="0.54">
    <path id="Path_8626" data-name="Path 8626" d="M251.03,100a5.03,5.03,0,1,0,5.03,5.03A5.032,5.032,0,0,0,251.03,100Zm0,0" transform="translate(-122.265 -49.701)" fill="rgba(142,121,246,0.49)"/>
    <path id="Path_8627" data-name="Path 8627" d="M85.03,270.06A5.03,5.03,0,1,0,80,265.03,5.032,5.032,0,0,0,85.03,270.06Zm0,0" transform="translate(-39.761 -129.223)" fill="rgba(142,121,246,0.49)"/>
    <path id="Path_8628" data-name="Path 8628" d="M169,0C123.721,0,86.555,31.22,83.681,70.546,40.555,72.709,0,103.806,0,145.867c0,17.577,6.955,34.608,19.617,48.1a30.59,30.59,0,0,1-8.083,28.82,5.029,5.029,0,0,0,3.556,8.586,55.483,55.483,0,0,0,38.441-15.538,114.622,114.622,0,0,0,35,5.478c45.277,0,82.439-31.213,85.321-70.531A113.1,113.1,0,0,0,204,145.419a55.483,55.483,0,0,0,38.441,15.538A5.029,5.029,0,0,0,246,152.37a30.59,30.59,0,0,1-8.083-28.82c12.661-13.494,19.617-30.525,19.617-48.1C257.53,31.745,213.851,0,169,0ZM88.526,211.255c-11.871,0-25.4-2.33-34.461-5.936a5.03,5.03,0,0,0-5.572,1.277,45.385,45.385,0,0,1-22.574,13.4,40.678,40.678,0,0,0,3.067-29.938,5.02,5.02,0,0,0-1.23-2.126c-11.412-11.753-17.7-26.692-17.7-42.062,0-35.445,35.932-65.389,78.466-65.389,40.164,0,75.448,27.93,75.448,65.389,0,36.056-33.846,65.389-75.448,65.389Zm141.247-93.745a5.044,5.044,0,0,0-1.23,2.126,40.678,40.678,0,0,0,3.067,29.938,45.37,45.37,0,0,1-22.574-13.4,5.033,5.033,0,0,0-5.572-1.277c-7.853,3.124-19.057,5.287-29.633,5.81-1.47-19.021-10.958-36.9-27.179-50.173h65.609a5.03,5.03,0,1,0,0-10.06H131.2a93.809,93.809,0,0,0-37.433-9.912C96.656,36.783,129.3,10.06,169,10.06c42.534,0,78.466,29.944,78.466,65.389,0,15.371-6.285,30.309-17.7,42.062Zm0,0" transform="translate(0 0)" fill="rgba(142,121,246,0.49)"/>
    <path id="Path_8629" data-name="Path 8629" d="M188.406,260H125.03a5.03,5.03,0,0,0,0,10.06h63.377a5.03,5.03,0,1,0,0-10.06Zm0,0" transform="translate(-59.641 -129.223)" fill="rgba(142,121,246,0.49)"/>
    <path id="Path_8630" data-name="Path 8630" d="M168.526,320H85.03a5.03,5.03,0,0,0,0,10.06h83.5a5.03,5.03,0,1,0,0-10.06Zm0,0" transform="translate(-39.761 -159.043)" fill="rgba(142,121,246,0.49)"/>
    <path id="Path_8631" data-name="Path 8631" d="M354.406,100H291.03a5.03,5.03,0,0,0,0,10.06h63.377a5.03,5.03,0,1,0,0-10.06Zm0,0" transform="translate(-142.145 -49.701)" fill="rgba(142,121,246,0.49)"/>
  </g>
</svg>
