<svg xmlns="http://www.w3.org/2000/svg" width="307.446" height="207.307" viewBox="0 0 307.446 207.307">
  <g id="video" opacity="0.58">
    <path id="Path_8622" data-name="Path 8622" d="M39.611,147.782c2.537,0,4.594-1.789,4.594-4V94.769c0-6.254,5.849-11.342,13.039-11.342H282.993c7.19,0,13.039,5.088,13.039,11.342V124.6c0,2.207,2.057,4,4.594,4s4.594-1.789,4.594-4V94.769c0-10.661-9.971-19.334-22.227-19.334H57.244c-12.257,0-22.227,8.673-22.227,19.334v49.017c0,2.207,2.057,4,4.594,4Z" transform="translate(-16.396 -75.435)" fill="rgba(142,121,246,0.49)"/>
    <path id="Path_8623" data-name="Path 8623" d="M302.933,264.455H286.419V160.511a4.516,4.516,0,0,0-9.025,0V264.455H266.179V237.49a4.516,4.516,0,0,0-9.025,0v26.965H181.427a4.432,4.432,0,0,0-4.513,4.347v3.344a1.545,1.545,0,0,1-1.571,1.514H120.014a1.545,1.545,0,0,1-1.571-1.514V268.8a4.432,4.432,0,0,0-4.513-4.347H50.291V117.833H257.154V220.1a4.516,4.516,0,0,0,9.025,0V113.487a4.432,4.432,0,0,0-4.513-4.347H45.779a4.432,4.432,0,0,0-4.513,4.347V264.455H30.052V181.374a4.516,4.516,0,0,0-9.025,0v83.081H4.513A4.432,4.432,0,0,0,0,268.8v13.219c0,9.1,7.686,16.5,17.133,16.5h273.18c9.447,0,17.133-7.4,17.133-16.5V268.8a4.431,4.431,0,0,0-4.512-4.347Zm-4.512,17.566a7.972,7.972,0,0,1-8.108,7.81H17.133a7.972,7.972,0,0,1-8.108-7.81v-8.873H109.47a10.469,10.469,0,0,0,10.546,9.2h55.329a10.469,10.469,0,0,0,10.546-9.2H298.421Z" transform="translate(0 -91.216)" fill="rgba(142,121,246,0.49)"/>
    <path id="Path_8624" data-name="Path 8624" d="M189.088,244.835a3.989,3.989,0,0,0,1.463,5.448,47.481,47.481,0,1,0-13.238-11.308,3.988,3.988,0,0,0,6.2-5.017,39.029,39.029,0,0,1-8.769-24.81,39.456,39.456,0,1,1,19.79,34.225,3.989,3.989,0,0,0-5.447,1.463Z" transform="translate(-60.497 -108.615)" fill="rgba(142,121,246,0.49)"/>
    <path id="Path_8625" data-name="Path 8625" d="M235.419,253.7a3.984,3.984,0,0,0,2.364-.776l26.085-19.2a3.988,3.988,0,0,0,0-6.424l-26.085-19.2a3.988,3.988,0,0,0-6.352,3.213v38.39a3.989,3.989,0,0,0,3.988,3.989Zm3.989-34.492,15.367,11.308-15.367,11.308Z" transform="translate(-90.188 -129.841)" fill="rgba(142,121,246,0.49)"/>
  </g>
</svg>
