<svg xmlns="http://www.w3.org/2000/svg" width="116.616" height="104.771" viewBox="0 0 116.616 104.771">
  <g id="credit-card_2_" data-name="credit-card (2)" transform="translate(0 -26.001)">
    <g id="Group_92" data-name="Group 92" transform="translate(84.172 107.412)">
      <g id="Group_91" data-name="Group 91" transform="translate(0 0)">
        <path id="Path_11036" data-name="Path 11036" d="M378.093,383.843a2.277,2.277,0,0,0-3.169.575,25.787,25.787,0,0,1-2.339,2.9,27.783,27.783,0,0,1-2.227,2.093,2.278,2.278,0,1,0,2.953,3.469,31.9,31.9,0,0,0,2.606-2.456,30.312,30.312,0,0,0,2.752-3.409A2.277,2.277,0,0,0,378.093,383.843Z" transform="translate(-369.556 -383.437)" fill="rgba(255,108,29,0.37)"/>
      </g>
    </g>
    <g id="Group_94" data-name="Group 94" transform="translate(78.327 116.72)">
      <g id="Group_93" data-name="Group 93" transform="translate(0 0)">
        <path id="Path_11037" data-name="Path 11037" d="M348.356,425.613a2.278,2.278,0,0,0-3.029-1.095l-.071.032a2.278,2.278,0,1,0,1.839,4.167l.166-.075A2.278,2.278,0,0,0,348.356,425.613Z" transform="translate(-343.896 -424.302)" fill="rgba(255,108,29,0.37)"/>
      </g>
    </g>
    <g id="Group_96" data-name="Group 96" transform="translate(0 26.001)">
      <g id="Group_95" data-name="Group 95">
        <path id="Path_11038" data-name="Path 11038" d="M109.811,26H6.8a6.812,6.812,0,0,0-6.8,6.8V96.637a6.812,6.812,0,0,0,6.8,6.8H54.768a38.069,38.069,0,0,0,10.65,18.6c5.865,5.7,12.589,8.733,15.188,8.733s9.322-3.034,15.188-8.732a38.069,38.069,0,0,0,10.65-18.6h3.368a6.812,6.812,0,0,0,6.8-6.8V32.805A6.812,6.812,0,0,0,109.811,26ZM102.95,94.107a33.621,33.621,0,0,1-10.187,24.525c-5.513,5.415-11.167,7.521-12.157,7.585-.99-.064-6.645-2.17-12.158-7.585A33.623,33.623,0,0,1,58.261,94.107V82.89a101.941,101.941,0,0,0,22.345-9.45,105.473,105.473,0,0,0,22.343,9.449Zm9.111,2.53a2.252,2.252,0,0,1-2.249,2.249h-2.576a42.026,42.026,0,0,0,.27-4.779V81.163a2.278,2.278,0,0,0-1.681-2.2A100.476,100.476,0,0,1,81.756,68.844a2.278,2.278,0,0,0-2.3,0,97.723,97.723,0,0,1-24.068,10.12,2.278,2.278,0,0,0-1.681,2.2V94.107a41.974,41.974,0,0,0,.27,4.779H6.8a2.252,2.252,0,0,1-2.249-2.249V57.888H112.06Zm0-43.3H4.555v-9.11H112.06Zm0-13.666H4.555V32.805A2.252,2.252,0,0,1,6.8,30.556H109.811a2.252,2.252,0,0,1,2.249,2.249Z" transform="translate(0 -26.001)" fill="rgba(255,108,29,0.37)"/>
      </g>
    </g>
    <g id="Group_98" data-name="Group 98" transform="translate(9.111 73.832)">
      <g id="Group_97" data-name="Group 97" transform="translate(0 0)">
        <path id="Path_11039" data-name="Path 11039" d="M58.221,236a10.259,10.259,0,0,0-3.984.807,10.249,10.249,0,1,0,0,18.884A10.249,10.249,0,1,0,58.221,236Zm-7.971,15.943a5.694,5.694,0,1,1,5.694-5.694A5.7,5.7,0,0,1,50.251,251.946Zm8.535-.028a10.223,10.223,0,0,0,0-11.332,5.694,5.694,0,0,1,0,11.332Z" transform="translate(-40.001 -236.003)" fill="rgba(255,108,29,0.37)"/>
      </g>
    </g>
    <g id="Group_100" data-name="Group 100" transform="translate(9.11 63.582)">
      <g id="Group_99" data-name="Group 99">
        <path id="Path_11040" data-name="Path 11040" d="M53.992,191H42.277a2.278,2.278,0,1,0,0,4.555H53.992a2.278,2.278,0,1,0,0-4.555Z" transform="translate(-39.999 -191.001)" fill="rgba(255,108,29,0.37)"/>
      </g>
    </g>
    <g id="Group_102" data-name="Group 102" transform="translate(27.451 63.582)">
      <g id="Group_101" data-name="Group 101">
        <path id="Path_11041" data-name="Path 11041" d="M122.908,191H122.8a2.278,2.278,0,1,0,0,4.555h.108a2.278,2.278,0,1,0,0-4.555Z" transform="translate(-120.522 -191.001)" fill="rgba(255,108,29,0.37)"/>
      </g>
    </g>
    <g id="Group_104" data-name="Group 104" transform="translate(67.436 88.203)">
      <g id="Group_103" data-name="Group 103">
        <path id="Path_11042" data-name="Path 11042" d="M321.749,299.765a2.278,2.278,0,0,0-3.221,0l-12.18,12.179-6.383-6.383a2.278,2.278,0,1,0-3.221,3.221l7.993,7.994a2.277,2.277,0,0,0,3.221,0l13.79-13.79A2.278,2.278,0,0,0,321.749,299.765Z" transform="translate(-296.077 -299.098)" fill="rgba(255,108,29,0.37)"/>
      </g>
    </g>
  </g>
</svg>
