<svg xmlns="http://www.w3.org/2000/svg" width="136.525" height="138.312" viewBox="0 0 136.525 138.312">
  <g id="refund" transform="translate(-0.199)">
    <path id="Path_11059" data-name="Path 11059" d="M89.033,0A64.951,64.951,0,0,0,24.2,64.834a51.37,51.37,0,0,0,.228,5.915l4.55-.455a43.788,43.788,0,0,1-.228-5.459,60.284,60.284,0,1,1,62.559,60.284l5.005-5.005-3.185-3.185L82.436,127.62l10.692,10.691,3.185-3.185-5.459-5.459C126.8,128.53,155,98.729,153.867,63.014A65.036,65.036,0,0,0,89.033,0Zm0,0" transform="translate(-17.176)" fill="rgba(255,108,29,0.37)"/>
    <path id="Path_11060" data-name="Path 11060" d="M194.094,96H112.2v40.948h81.9Zm-4.55,36.4h-72.8V100.55h72.8Zm0,0" transform="translate(-80.152 -68.702)" fill="rgba(255,108,29,0.37)"/>
    <path id="Path_11061" data-name="Path 11061" d="M233.3,154.2a9.1,9.1,0,1,0-9.1-9.1A9.126,9.126,0,0,0,233.3,154.2Zm0-13.649a4.55,4.55,0,1,1-4.55,4.55A4.563,4.563,0,0,1,233.3,140.55Zm0,0" transform="translate(-160.304 -97.327)" fill="rgba(255,108,29,0.37)"/>
    <path id="Path_11062" data-name="Path 11062" d="M148.749,132.55h4.55V128h-9.1v9.1h4.55Zm0,0" transform="translate(-103.053 -91.602)" fill="rgba(255,108,29,0.37)"/>
    <path id="Path_11063" data-name="Path 11063" d="M153.3,180.55h-4.55V176H144.2v9.1h9.1Zm0,0" transform="translate(-103.053 -125.953)" fill="rgba(255,108,29,0.37)"/>
    <path id="Path_11064" data-name="Path 11064" d="M345.3,176h-4.55v4.55H336.2v4.55h9.1Zm0,0" transform="translate(-240.456 -125.953)" fill="rgba(255,108,29,0.37)"/>
    <path id="Path_11065" data-name="Path 11065" d="M340.749,137.1h4.55V128h-9.1v4.55h4.55Zm0,0" transform="translate(-240.456 -91.602)" fill="rgba(255,108,29,0.37)"/>
    <path id="Path_11066" data-name="Path 11066" d="M184.2,160h6.825v4.55H184.2Zm0,0" transform="translate(-131.678 -114.503)" fill="rgba(255,108,29,0.37)"/>
    <path id="Path_11067" data-name="Path 11067" d="M304.2,160h6.825v4.55H304.2Zm0,0" transform="translate(-217.555 -114.503)" fill="rgba(255,108,29,0.37)"/>
    <path id="Path_11068" data-name="Path 11068" d="M48.2,344h4.55v6.825H48.2Zm0,0" transform="translate(-34.351 -246.181)" fill="rgba(255,108,29,0.37)"/>
    <path id="Path_11069" data-name="Path 11069" d="M113.942,280.825a8.546,8.546,0,0,0-8.416-8.416,7.764,7.764,0,0,0-2.275.227L75.725,280.6c-.228,0-.683.228-.91,0l-6.37-1.137a9.279,9.279,0,0,0,3.64-12.284,8.929,8.929,0,0,0-7.962-4.777H35.459a6.415,6.415,0,0,0-3.412.911l-4.55,2.957v-3.412H.2v38.673H27.5v-5.687l22.521,9.327a6.308,6.308,0,0,0,4.55.228L107.8,288.787a8.068,8.068,0,0,0,6.141-7.962ZM22.948,296.977H4.749V267.4h9.1v13.649H18.4V267.4h4.55Zm30.483,4.094a1.94,1.94,0,0,1-1.592,0L27.5,290.834V271.5l6.825-3.867a1.7,1.7,0,0,1,1.137-.228H63.9a4.55,4.55,0,1,1,0,9.1H47.971v2.275l-.454,2.275,26.161,4.322a6.541,6.541,0,0,0,2.957-.228l27.526-7.962a3.883,3.883,0,0,1,4.777,2.73,3.75,3.75,0,0,1-2.5,4.777Zm0,0" transform="translate(0 -187.783)" fill="rgba(255,108,29,0.37)"/>
  </g>
</svg>
