<svg xmlns="http://www.w3.org/2000/svg" width="103.463" height="103.423" viewBox="0 0 103.463 103.423">
  <g id="smartphone-money-pay_in-pay_out-security" data-name="smartphone-money-pay in-pay out-security" transform="translate(-1.975 -1.999)">
    <path id="Path_11043" data-name="Path 11043" d="M100.267,2H52a5.187,5.187,0,0,0-5.171,5.171V32.216a27.579,27.579,0,1,0,0,42.988v25.045A5.187,5.187,0,0,0,52,105.42h48.263a5.187,5.187,0,0,0,5.171-5.171V7.171A5.187,5.187,0,0,0,100.267,2ZM92.89,5.447l-.862,3.447H60.244l-.862-3.447ZM29.6,77.841A24.131,24.131,0,1,1,53.728,53.71,24.131,24.131,0,0,1,29.6,77.841Zm72.394,22.408a1.724,1.724,0,0,1-1.724,1.724H52a1.724,1.724,0,0,1-1.724-1.724V71.895a27.429,27.429,0,0,0,0-36.369V7.171A1.724,1.724,0,0,1,52,5.447h3.827l1.4,5.585a1.724,1.724,0,0,0,1.672,1.31H93.373a1.724,1.724,0,0,0,1.672-1.31l1.4-5.585h3.827a1.724,1.724,0,0,1,1.724,1.724Z" transform="translate(0 0.001)" fill="rgba(255,108,29,0.37)"/>
    <path id="Path_11044" data-name="Path 11044" d="M40.2,7.172H17.791V3.725A1.724,1.724,0,0,0,14.964,2.4L4.622,11.016a1.724,1.724,0,0,0,0,2.654l10.342,8.618a1.724,1.724,0,0,0,1.1.4,1.763,1.763,0,0,0,.724-.155,1.724,1.724,0,0,0,1-1.569V17.514H40.2a1.724,1.724,0,0,0,1.724-1.724V8.9A1.724,1.724,0,0,0,40.2,7.172Zm-1.724,6.895H16.067a1.724,1.724,0,0,0-1.724,1.724v1.5L8.414,12.343,14.343,7.4V8.9a1.724,1.724,0,0,0,1.724,1.724H38.475Z" transform="translate(1.464 0)" fill="rgba(255,108,29,0.37)"/>
    <path id="Path_11045" data-name="Path 11045" d="M41.3,59.016,30.958,50.4a1.724,1.724,0,0,0-2.827,1.327v3.447H5.724A1.724,1.724,0,0,0,4,56.9v6.895a1.724,1.724,0,0,0,1.724,1.724H28.131v3.447a1.724,1.724,0,0,0,1,1.569,1.763,1.763,0,0,0,.724.155,1.724,1.724,0,0,0,1.1-.4L41.3,61.67a1.724,1.724,0,0,0,0-2.654ZM31.579,65.29v-1.5a1.724,1.724,0,0,0-1.724-1.724H7.447V58.62H29.855A1.724,1.724,0,0,0,31.579,56.9V55.4l5.929,4.947Z" transform="translate(1.465 34.736)" fill="rgba(255,108,29,0.37)"/>
    <path id="Path_11046" data-name="Path 11046" d="M20.895,29.895a3.447,3.447,0,0,1,3.447,3.447h3.447a6.9,6.9,0,0,0-5.171-6.65V23H19.171v3.692a6.881,6.881,0,0,0,1.724,13.545,3.447,3.447,0,1,1-3.447,3.447H14a6.9,6.9,0,0,0,5.171,6.65v3.692h3.447V50.334a6.881,6.881,0,0,0-1.724-13.545,3.447,3.447,0,0,1,0-6.895Z" transform="translate(8.702 15.198)" fill="rgba(255,108,29,0.37)"/>
    <path id="Path_11047" data-name="Path 11047" d="M12.054,23.515a20.706,20.706,0,0,0,0,29.251l2.437-2.437a17.256,17.256,0,0,1,0-24.376Z" transform="translate(2.917 15.571)" fill="rgba(255,108,29,0.37)"/>
    <path id="Path_11048" data-name="Path 11048" d="M27.508,23.515l-2.437,2.437a17.256,17.256,0,0,1,0,24.376l2.437,2.437a20.706,20.706,0,0,0,0-29.251Z" transform="translate(16.714 15.571)" fill="rgba(255,108,29,0.37)"/>
    <path id="Path_11049" data-name="Path 11049" d="M63.534,28.31,51.469,23.139a1.736,1.736,0,0,0-1.358,0L38.045,28.31A1.724,1.724,0,0,0,37,29.894v6.059a11.993,11.993,0,0,0,3.534,8.532l9.037,9.035a1.724,1.724,0,0,0,2.437,0l9.037-9.035a11.993,11.993,0,0,0,3.534-8.532V29.894a1.724,1.724,0,0,0-1.044-1.584Zm-2.4,7.643a8.572,8.572,0,0,1-2.523,6.095l-7.819,7.817-7.817-7.817a8.567,8.567,0,0,1-2.525-6.095V31.03L50.789,26.6,61.131,31.03Z" transform="translate(25.346 15.199)" fill="rgba(255,108,29,0.37)"/>
    <path id="Path_11050" data-name="Path 11050" d="M44.73,31.74l-2.437,2.437,3.447,3.447a1.724,1.724,0,0,0,2.437,0l6.895-6.895-2.437-2.437-5.676,5.676Z" transform="translate(29.177 19.029)" fill="rgba(255,108,29,0.37)"/>
  </g>
</svg>
