<svg xmlns="http://www.w3.org/2000/svg" width="936.695" height="697.95" viewBox="0 0 936.695 697.95">
  <g id="_3293466" data-name="3293466" transform="translate(0 -0.05)">
    <g id="Background_Complete" data-name="Background Complete" transform="translate(0 0.05)">
      <rect id="Rectangle_172" data-name="Rectangle 172" width="936.695" height="0.468" transform="translate(0 613.348)" fill="#ebebeb"/>
      <rect id="Rectangle_173" data-name="Rectangle 173" width="47.697" height="0.468" transform="translate(543.677 626.106)" fill="#ebebeb"/>
      <rect id="Rectangle_174" data-name="Rectangle 174" width="113.022" height="0.468" transform="translate(740.195 636.241)" fill="#ebebeb"/>
      <rect id="Rectangle_175" data-name="Rectangle 175" width="116.768" height="0.468" transform="translate(416.755 626.331)" fill="#ebebeb"/>
      <rect id="Rectangle_176" data-name="Rectangle 176" width="24.429" height="0.468" transform="translate(316.603 640.344)" fill="#ebebeb"/>
      <rect id="Rectangle_177" data-name="Rectangle 177" width="111.242" height="0.468" transform="translate(364.768 640.344)" fill="#ebebeb"/>
      <rect id="Rectangle_178" data-name="Rectangle 178" width="72.032" height="0.468" transform="translate(98.278 632.438)" fill="#ebebeb"/>
      <path id="Path_11166" data-name="Path 11166" d="M410.621,584.795H48.888A10.7,10.7,0,0,1,38.21,574.1V65.6A10.7,10.7,0,0,1,48.888,55H410.621a10.7,10.7,0,0,1,10.7,10.7V574.1A10.7,10.7,0,0,1,410.621,584.795ZM48.888,55.375A10.229,10.229,0,0,0,38.678,65.6V574.1a10.229,10.229,0,0,0,10.21,10.229H410.621A10.247,10.247,0,0,0,420.85,574.1V65.6a10.248,10.248,0,0,0-10.229-10.229Z" transform="translate(33.372 -55)" fill="#ebebeb"/>
      <path id="Path_11167" data-name="Path 11167" d="M626.949,584.795H265.2a10.716,10.716,0,0,1-10.7-10.7V65.6A10.716,10.716,0,0,1,265.2,55H626.949a10.7,10.7,0,0,1,10.66,10.6V574.1A10.7,10.7,0,0,1,626.949,584.795ZM265.2,55.375A10.247,10.247,0,0,0,254.968,65.6V574.1A10.248,10.248,0,0,0,265.2,584.326H626.949A10.248,10.248,0,0,0,637.177,574.1V65.6a10.247,10.247,0,0,0-10.229-10.229Z" transform="translate(222.278 -55)" fill="#ebebeb"/>
      <path id="Path_11168" data-name="Path 11168" d="M257.473,281.323H133.08l-7.55-87.113H249.923Z" transform="translate(109.637 169.528)" fill="#e6e6e6"/>
      <path id="Path_11169" data-name="Path 11169" d="M260.913,281.323H136.52l-7.55-87.113H253.363Z" transform="translate(112.641 169.528)" fill="#f0f0f0"/>
      <path id="Path_11170" data-name="Path 11170" d="M144.019,253.9l-4.159-49.7h86.982L231,253.9Z" transform="translate(122.152 178.253)" fill="#fff"/>
      <rect id="Rectangle_179" data-name="Rectangle 179" width="14.594" height="162.479" transform="translate(380.486 450.85)" fill="#e6e6e6"/>
      <rect id="Rectangle_180" data-name="Rectangle 180" width="10.135" height="162.479" transform="translate(389.553 450.85)" fill="#f0f0f0"/>
      <rect id="Rectangle_181" data-name="Rectangle 181" width="141.272" height="17.928" transform="translate(399.688 468.779) rotate(180)" fill="#f0f0f0"/>
      <rect id="Rectangle_182" data-name="Rectangle 182" width="14.594" height="144.551" transform="translate(248.805 468.797)" fill="#e6e6e6"/>
      <rect id="Rectangle_183" data-name="Rectangle 183" width="10.135" height="144.551" transform="translate(257.872 468.797)" fill="#f0f0f0"/>
      <rect id="Rectangle_184" data-name="Rectangle 184" width="14.594" height="144.551" transform="translate(144.926 468.797)" fill="#e6e6e6"/>
      <rect id="Rectangle_185" data-name="Rectangle 185" width="10.135" height="144.551" transform="translate(153.993 468.797)" fill="#f0f0f0"/>
      <rect id="Rectangle_186" data-name="Rectangle 186" width="14.594" height="144.551" transform="translate(288.127 468.797)" fill="#e6e6e6"/>
      <rect id="Rectangle_187" data-name="Rectangle 187" width="10.135" height="144.551" transform="translate(297.176 468.797)" fill="#f0f0f0"/>
      <rect id="Rectangle_188" data-name="Rectangle 188" width="113.49" height="17.928" transform="translate(144.926 450.85)" fill="#e6e6e6"/>
      <rect id="Rectangle_189" data-name="Rectangle 189" width="438.992" height="244.403" transform="translate(242.623 45.729)" fill="#e0e0e0"/>
      <rect id="Rectangle_190" data-name="Rectangle 190" width="460.892" height="244.403" transform="translate(244.833 45.729)" fill="#f5f5f5"/>
      <rect id="Rectangle_191" data-name="Rectangle 191" width="229.34" height="445.83" transform="translate(698.194 53.261) rotate(90)" fill="#fff"/>
      <path id="Path_11171" data-name="Path 11171" d="M295.832,257.82,380,28.48H241.091L156.92,257.82Z" transform="translate(137.052 24.78)" fill="#f5f5f5"/>
      <path id="Path_11172" data-name="Path 11172" d="M351.3,257.82,435.469,28.48h-104.8L246.5,257.82Z" transform="translate(215.291 24.78)" fill="#f5f5f5"/>
      <rect id="Rectangle_192" data-name="Rectangle 192" width="37.318" height="233.424" transform="translate(783.433 379.924)" fill="#e6e6e6"/>
      <path id="Path_11173" data-name="Path 11173" d="M437.665,335.835h9.817V317.85h-20.1Z" transform="translate(373.27 277.514)" fill="#fafafa"/>
      <rect id="Rectangle_193" data-name="Rectangle 193" width="37.318" height="233.424" transform="translate(439.366 379.924)" fill="#e6e6e6"/>
      <rect id="Rectangle_194" data-name="Rectangle 194" width="352.628" height="228.572" transform="translate(468.123 379.924)" fill="#fafafa"/>
      <path id="Path_11174" data-name="Path 11174" d="M592.721,327.267H253.45V262.71H592.721Zm-337.4-1.873H590.848v-60.81H255.323Z" transform="translate(221.361 126.412)" fill="#e6e6e6"/>
      <path id="Path_11175" data-name="Path 11175" d="M514.612,290.279H301.364c-9.891,0-19.427-7.981-26.227-21.919l-.637-1.33H541.458l-.637,1.33C533.965,282.3,524.6,290.279,514.612,290.279Zm-237.04-21.432c6.332,12.421,14.987,19.5,23.792,19.5H514.612c8.842,0,17.46-7.081,23.792-19.5Z" transform="translate(239.746 130.185)" fill="#e6e6e6"/>
      <path id="Path_11176" data-name="Path 11176" d="M259.7,335.835H249.88V317.85h20.1Z" transform="translate(218.243 277.514)" fill="#fafafa"/>
      <path id="Path_11177" data-name="Path 11177" d="M592.721,366.062H253.45V301.58H592.721Zm-337.4-1.873H590.848V303.453H255.323Z" transform="translate(221.361 160.361)" fill="#e6e6e6"/>
      <path id="Path_11178" data-name="Path 11178" d="M514.612,329.157H301.364c-9.891,0-19.427-8-26.227-21.919l-.637-1.349H541.458l-.637,1.349C533.965,321.083,524.6,329.157,514.612,329.157Zm-237.04-21.394c6.332,12.421,14.987,19.521,23.792,19.521H514.612c8.842,0,17.46-7.1,23.792-19.521Z" transform="translate(239.746 164.125)" fill="#e6e6e6"/>
      <path id="Path_11179" data-name="Path 11179" d="M592.721,405H253.45V340.44H592.721Zm-337.4-1.873H590.848v-60.81H255.323Z" transform="translate(221.361 194.301)" fill="#e6e6e6"/>
      <path id="Path_11180" data-name="Path 11180" d="M514.612,368.009H301.364c-9.891,0-19.427-7.981-26.227-21.9l-.637-1.349H541.458l-.637,1.349C533.965,360.028,524.6,368.009,514.612,368.009Zm-237.04-21.375c6.332,12.421,14.987,19.5,23.792,19.5H514.612c8.842,0,17.46-7.081,23.792-19.5Z" transform="translate(239.746 198.074)" fill="#e6e6e6"/>
      <path id="Path_11181" data-name="Path 11181" d="M142.361,219.33v4.534h-2.885l-2.4,35.52H101.783L99.4,223.864H96.5V219.33Z" transform="translate(84.282 191.467)" fill="#e6e6e6"/>
      <path id="Path_11182" data-name="Path 11182" d="M167.576,246.285c-2.885-21.169-31.454-27.2-67.7-27.988C65.383,217.566,54.33,205.37,54.33,205.37s.112,49.4,49.813,67.311C151.334,289.654,170.48,267.492,167.576,246.285Z" transform="translate(47.451 76.332)" fill="#e6e6e6"/>
      <path id="Path_11183" data-name="Path 11183" d="M105.418,264.331c.6-8.692,14.5-24.691,47.94-17.422,24.167,5.264,33.159-7.269,33.159-7.269s-2.248,35.37-38.592,45.992C113.4,295.729,104.351,279.656,105.418,264.331Z" transform="translate(92 106.263)" fill="#e6e6e6"/>
      <path id="Path_11184" data-name="Path 11184" d="M113.879,331.074a1.292,1.292,0,0,0,.993-.45c2.417-2.866.431-9.723-2.3-19.221-3.522-12.177-7.906-27.352-4.2-38.348a154.26,154.26,0,0,1,7.194-17.01c5.246-11.09,9.779-20.607,5.995-30.686a1.293,1.293,0,1,0-2.417.918c3.391,8.974-.712,17.666-5.92,28.682a160.335,160.335,0,0,0-7.306,17.273c-3.953,11.765.543,27.37,4.159,39.885,2.136,7.493,4.346,14.987,2.829,16.861a1.274,1.274,0,0,0,.15,1.873A1.236,1.236,0,0,0,113.879,331.074Z" transform="translate(91.164 93.061)" fill="#e6e6e6"/>
    </g>
    <g id="Shadow" transform="translate(105.116 655.587)">
      <ellipse id="_Path_" data-name="&lt;Path&gt;" cx="363.232" cy="21.207" rx="363.232" ry="21.207" fill="#f5f5f5"/>
    </g>
    <g id="Login" transform="translate(187.695 132.293)">
      <path id="Path_11185" data-name="Path 11185" d="M380.768,505.556H114.746L100.19,77.73H366.211Z" transform="translate(-100.19 -64.448)" fill="#88cec5"/>
      <path id="Path_11186" data-name="Path 11186" d="M387.866,498.466H121.845L107.27,70.64H373.291Z" transform="translate(-94.006 -70.64)" fill="#88cec5"/>
      <path id="Path_11187" data-name="Path 11187" d="M387.866,498.466H121.845L107.27,70.64H373.291Z" transform="translate(-107.006 -70.64)" fill="#88cec5" opacity="0.3"/>
      <path id="Path_11241" data-name="Path 11241" d="M0,76.116Z" transform="matrix(0.701, -0.713, 0.713, 0.701, 44.594, 121.773)" fill="#407bff"/>
      <path id="Path_11188" data-name="Path 11188" d="M271.078,219.913a59.948,59.948,0,0,1-6.463,29.412,59.18,59.18,0,0,1-53.2,32.335,64.182,64.182,0,0,1-55.377-32.335,62.74,62.74,0,0,1-8.468-29.412,59.274,59.274,0,0,1,59.649-61.822A64.37,64.37,0,0,1,271.078,219.913Z" transform="translate(-58.861 -97.206)" fill="#fff"/>
      <path id="Path_11189" data-name="Path 11189" d="M260.622,214.467a59.18,59.18,0,0,1-53.2,32.335,64.182,64.182,0,0,1-55.377-32.335A94.775,94.775,0,0,1,205.806,198,100.189,100.189,0,0,1,260.622,214.467Z" transform="translate(-54.905 -62.348)" fill="#01a479" opacity="0.6"/>
      <ellipse id="Ellipse_67" data-name="Ellipse 67" cx="27.052" cy="27.988" rx="27.052" ry="27.988" transform="matrix(0.701, -0.713, 0.713, 0.701, 110.812, 101.214)" fill="#01a479" opacity="0.6"/>
      <path id="Path_11190" data-name="Path 11190" d="M308.165,232.031H138.473L137.33,198.31H307.022Z" transform="translate(-67.752 40.866)" fill="#fff"/>
      <path id="Path_11191" data-name="Path 11191" d="M309.273,264.2H139.563L138.42,230.48H308.13Z" transform="translate(-66.8 68.963)" fill="#fff"/>
      <path id="Path_11192" data-name="Path 11192" d="M214.9,287.923l-40.9,5.62a2.848,2.848,0,0,0-2.473,3.372l5.377,27.408a3.3,3.3,0,0,0,3.634,2.567l40.9-5.62a2.866,2.866,0,0,0,2.454-3.391l-5.358-27.408A3.278,3.278,0,0,0,214.9,287.923Zm-11.746,27.764-7.494.993-.731-8.842a5.245,5.245,0,0,1-3.054-3.747,4.665,4.665,0,0,1,4.046-5.62,5.358,5.358,0,0,1,5.92,4.178,4.59,4.59,0,0,1-1.461,4.365Z" transform="translate(-37.924 16.165)" fill="#01a479"/>
      <path id="Path_11193" data-name="Path 11193" d="M210.084,297.658h0a2.922,2.922,0,0,1-3.222-2.267l-.525-2.679a15.418,15.418,0,0,0-16.149-12.289,13.114,13.114,0,0,0-12.1,15.718l.6,3.091a2.51,2.51,0,0,1-2.192,3h0a2.885,2.885,0,0,1-3.222-2.267l-.506-2.6a18.453,18.453,0,0,1,14.987-22.012,20.982,20.982,0,0,1,23.979,16.242l.6,3.072a2.51,2.51,0,0,1-2.248,3Z" transform="translate(-37.151 4.95)" fill="#01a479"/>
      <path id="Path_11194" data-name="Path 11194" d="M266.514,283.926H156.041l-.731-21.956H265.765Z" transform="translate(-52.049 96.466)" fill="#01a479"/>
      <path id="Path_11195" data-name="Path 11195" d="M191.978,265.134a5.92,5.92,0,0,1-5.957,6.163,6.444,6.444,0,0,1-6.388-6.163,5.92,5.92,0,0,1,5.957-6.163,6.426,6.426,0,0,1,6.388,6.163Z" transform="translate(-30.81 -9.097)" fill="#263238"/>
      <path id="Path_11196" data-name="Path 11196" d="M177.749,265.134a5.9,5.9,0,0,1-5.957,6.163,6.426,6.426,0,0,1-6.37-6.164,5.92,5.92,0,0,1,5.957-6.163,6.407,6.407,0,0,1,6.369,6.163Z" transform="translate(-43.221 -9.097)" fill="#263238"/>
      <path id="Path_11197" data-name="Path 11197" d="M163.619,265.134a5.92,5.92,0,0,1-5.957,6.163,6.407,6.407,0,0,1-6.37-6.163,5.92,5.92,0,0,1,5.957-6.163A6.407,6.407,0,0,1,163.619,265.134Z" transform="translate(-55.562 -9.097)" fill="#263238"/>
      <path id="Path_11198" data-name="Path 11198" d="M206.139,265.108a5.92,5.92,0,0,1-5.957,6.163,6.407,6.407,0,0,1-6.37-6.163A5.9,5.9,0,0,1,199.788,259,6.407,6.407,0,0,1,206.139,265.108Z" transform="translate(-18.425 -9.071)" fill="#263238"/>
      <path id="Path_11199" data-name="Path 11199" d="M220.309,265.134a5.9,5.9,0,0,1-5.957,6.163,6.426,6.426,0,0,1-6.37-6.164,5.92,5.92,0,0,1,5.957-6.163,6.407,6.407,0,0,1,6.369,6.163Z" transform="translate(-6.05 -9.097)" fill="#263238"/>
    </g>
    <g id="Character" transform="translate(517.657 135.964)">
      <path id="Path_11200" data-name="Path 11200" d="M341.884,174.28c2.492,4.009,4.571,7.831,6.707,11.821s4.065,8,5.957,12.1a173.011,173.011,0,0,1,9.554,25.722c.337,1.105.581,2.286.862,3.428l.412,1.742.206.862.244,1.424a25.63,25.63,0,0,1-.581,9.667A54.78,54.78,0,0,1,359.4,255a110.945,110.945,0,0,1-16.636,21.788l-7.887-5.957a208.682,208.682,0,0,0,10.547-22.481,46.573,46.573,0,0,0,2.866-10.547,8.353,8.353,0,0,0-.15-3.316l-.749-2.285c-.3-.937-.581-1.873-.937-2.829a212.478,212.478,0,0,0-9.873-22.631c-3.747-7.494-7.775-14.987-11.8-22.143Z" transform="translate(-233.997 -86.736)" fill="#ff8b7b"/>
      <path id="Path_11201" data-name="Path 11201" d="M335.258,224.43l-8.618,4.552,9.892,11.578s6.182-4.178,6.463-10.547Z" transform="translate(-232.372 -42.936)" fill="#ff8b7b"/>
      <path id="Path_11202" data-name="Path 11202" d="M320.47,179.048l10.585,8.412,10.866-3.972-9.892-11.578Z" transform="translate(-237.761 14.136)" fill="#ff8b7b"/>
      <path id="Path_11203" data-name="Path 11203" d="M302.328,142.573c-.206,1.049-.937,1.78-1.611,1.649s-1.068-1.105-.862-2.136.937-1.873,1.63-1.649S302.534,141.524,302.328,142.573Z" transform="translate(-255.813 -116.327)" fill="#263238"/>
      <path id="Path_11204" data-name="Path 11204" d="M303.862,142.52a37.953,37.953,0,0,1-6.782,7.906,6.163,6.163,0,0,0,4.8,1.873Z" transform="translate(-258.19 -114.475)" fill="#ff5652"/>
      <path id="Path_11205" data-name="Path 11205" d="M298.9,167.869V155.58l16.261,1.873s-.262,10.566-9.367,13.676Z" transform="translate(-256.6 -103.069)" fill="#ff8b7b"/>
      <path id="Path_11206" data-name="Path 11206" d="M303.549,95.91l11.446,3.3.206,7.512-16.261-1.967Z" transform="translate(-256.565 -52.241)" fill="#ff8b7b"/>
      <path id="Path_11207" data-name="Path 11207" d="M313.886,154.157l-11.446-3.3-2.229,4.271a18.228,18.228,0,0,0,10.566,15.886,17.91,17.91,0,0,0,3.316-9.367Z" transform="translate(-255.456 -107.191)" opacity="0.2"/>
      <path id="Path_11208" data-name="Path 11208" d="M306.312,140.356a.637.637,0,0,0,.468-1.049,6.219,6.219,0,0,0-5.32-2.061.618.618,0,0,0-.506.712.637.637,0,0,0,.712.525h0a4.927,4.927,0,0,1,4.2,1.667.637.637,0,0,0,.45.206Z" transform="translate(-254.814 -119.112)" fill="#263238"/>
      <path id="Path_11209" data-name="Path 11209" d="M330.1,151.68c-1.873,9.648-3.035,23.005,3.747,29.431,0,0-2.623,9.779-20.607,9.779-19.689,0-9.461-8.58-9.461-8.58,8.187-2.548,8.112-11.859,6.238-19.352Z" transform="translate(-254.659 -106.475)" fill="#ff8b7b"/>
      <path id="Path_11210" data-name="Path 11210" d="M337.187,177.091c1.761-2.473,1.686-10.322-.187-11.709-3.016-2.229-15.961-2.754-33.365,1.255,1.873,7.606-2.154,11.578-2.154,11.578Z" transform="translate(-254.347 -96.01)" fill="#1e1d2d"/>
      <path id="Path_11211" data-name="Path 11211" d="M353.527,409.543a4.29,4.29,0,0,1-3.3-.187,1.274,1.274,0,0,1-.3-1.443,1.442,1.442,0,0,1,.806-.918c1.78-.862,5.864.806,6.051.88a.3.3,0,0,1,.188.281.356.356,0,0,1-.169.3A18.423,18.423,0,0,1,353.527,409.543Zm-2.154-2.117a1.573,1.573,0,0,0-.356.131.787.787,0,0,0-.487.525c-.169.562,0,.749.112.806.712.6,3.335,0,5.189-.693A10.285,10.285,0,0,0,351.372,407.426Z" transform="translate(-212.124 116.299)" fill="#407bff"/>
      <path id="Path_11212" data-name="Path 11212" d="M355.781,410.137h-.15c-1.5-.431-4.683-2.7-4.721-4.178a1.03,1.03,0,0,1,.806-1.012,1.611,1.611,0,0,1,1.368.112c1.761.9,2.885,4.534,2.922,4.7a.3.3,0,0,1,0,.3A.262.262,0,0,1,355.781,410.137Zm-3.747-4.665h-.15c-.375.131-.375.318-.375.412,0,.88,2.136,2.66,3.747,3.372-.393-1.049-1.255-3.129-2.4-3.747a1.087,1.087,0,0,0-.806-.038Z" transform="translate(-211.175 114.637)" fill="#407bff"/>
      <path id="Path_11213" data-name="Path 11213" d="M301.761,410.9c-1.686,0-3.316-.244-3.859-.993a1.18,1.18,0,0,1,0-1.368,1.554,1.554,0,0,1,.993-.731c2.192-.6,6.8,2.023,6.988,2.136a.281.281,0,0,1,.15.318.3.3,0,0,1-.244.262,22.855,22.855,0,0,1-4.028.375Zm-2.079-2.566a1.874,1.874,0,0,0-.6,0,.956.956,0,0,0-.618.431c-.225.393-.131.581,0,.693.618.862,3.934.88,6.388.525a14.256,14.256,0,0,0-5.171-1.649Z" transform="translate(-257.663 117.15)" fill="#407bff"/>
      <path id="Path_11214" data-name="Path 11214" d="M304.163,411.987h-.131c-1.592-.712-4.74-3.559-4.5-5.058,0-.356.3-.787,1.161-.862a2.249,2.249,0,0,1,1.724.525,8.954,8.954,0,0,1,2.061,5.077.375.375,0,0,1-.131.281.357.357,0,0,1-.187.038Zm-3.222-5.339h-.187c-.562,0-.6.262-.6.337-.15.9,1.986,3.147,3.616,4.121a7.251,7.251,0,0,0-1.742-4.065,1.648,1.648,0,0,0-1.105-.393Z" transform="translate(-256.056 115.691)" fill="#407bff"/>
      <path id="Path_11215" data-name="Path 11215" d="M316.471,368.327H303.3L301.99,337.81h13.17Z" transform="translate(-253.901 159.032)" fill="#ff8b7b"/>
      <path id="Path_11216" data-name="Path 11216" d="M373.385,364.1l-12.87,2.791L347.57,338.453l12.889-2.773Z" transform="translate(-214.092 157.172)" fill="#ff8b7b"/>
      <path id="Path_11217" data-name="Path 11217" d="M362.54,408.07l14.481-3.129a1.143,1.143,0,0,1,1.274.637l5.021,10.9a1.873,1.873,0,0,1-1.386,2.7c-5.058.993-7.587,1.237-13.938,2.6-3.915.862-12.758,3.016-18.172,4.178s-7.269-4.028-5.152-4.983c9.461-4.328,13.395-8.13,15.961-11.671A3.2,3.2,0,0,1,362.54,408.07Z" transform="translate(-217.373 114.699)" fill="#263238"/>
      <path id="Path_11218" data-name="Path 11218" d="M317.565,408.24h14.388a1.162,1.162,0,0,1,1.124.9l2.6,11.709a1.873,1.873,0,0,1-1.873,2.361c-5.189-.094-12.683-.393-19.2-.393-7.643,0-14.219.412-23.174.412-5.414,0-6.913-5.47-4.646-5.976,10.3-2.248,18.734-2.492,27.632-7.981a6.127,6.127,0,0,1,3.147-1.03Z" transform="translate(-268.071 117.602)" fill="#263238"/>
      <path id="Path_11219" data-name="Path 11219" d="M338.91,169.169c12.346,2.829,22.481,34.358,22.481,34.358l-24.673,18.865A54.2,54.2,0,0,1,323.6,198.037C319.24,181.514,326.283,166.246,338.91,169.169Z" transform="translate(-236.156 -91.516)" fill="#01a479"/>
      <path id="Path_11221" data-name="Path 11221" d="M314.124,215.2c-3.072,3.316-6.145,6.276-9.367,9.367-1.592,1.5-3.2,3-4.852,4.44l-2.492,2.192-.618.543-1.068.862a14.986,14.986,0,0,1-3.616,2.136,11.784,11.784,0,0,1-4.571.937,11.241,11.241,0,0,1-3.934-.693,11.072,11.072,0,0,1-3.747-2.379,11.24,11.24,0,0,1-2.922-4.852,12.759,12.759,0,0,1-.543-2.791,18.929,18.929,0,0,1,0-3.335c.094-.9.206-1.686.356-2.417a46.391,46.391,0,0,1,2.173-7.494,67.061,67.061,0,0,1,2.9-6.782c1.2-2.379,2.342-4.121,3.484-6.107a152.978,152.978,0,0,1,15.83-21.469,145.045,145.045,0,0,1,19.2-18.209l6.894,7.1c-4.833,6.482-9.592,13.432-13.994,20.27a219.7,219.7,0,0,0-11.99,21.076c-.806,1.761-1.873,3.747-2.379,5.171a50.258,50.258,0,0,0-1.742,5.058,32.71,32.71,0,0,0-1.068,4.721,7.411,7.411,0,0,0,0,.749v-.169a5.206,5.206,0,0,0-.244-1.236,8.036,8.036,0,0,0-2.154-3.484,9.18,9.18,0,0,0-3.091-1.873,8.954,8.954,0,0,0-3.147-.581,7.645,7.645,0,0,0-3.016.581,6.9,6.9,0,0,0-.937.468l.712-.656,2.267-2.061,4.477-4.2c2.96-2.791,5.939-5.77,8.749-8.543Z" transform="translate(-276.321 -99.951)" fill="#ff8b7b"/>
      <path id="Path_11222" data-name="Path 11222" d="M328.07,181.36c6.707,6.632,8.9,18.734,9.367,29.225l-1.087.843a54.2,54.2,0,0,1-13.114-24.354c-.244-.974-.468-1.873-.637-2.941Z" transform="translate(-235.901 -80.553)" opacity="0.2"/>
      <path id="Path_11223" data-name="Path 11223" d="M290.561,183.746c-2.7,14.238-4.384,43.481,3.428,101.369h70.552c.487-10.809-6.313-63.6,4.122-114.577a185.474,185.474,0,0,0-23.6-2.979,261.758,261.758,0,0,0-29.974,0c-3.3.3-6.557.787-9.367,1.293A18.734,18.734,0,0,0,290.561,183.746Z" transform="translate(-265.852 -92.98)" fill="#1e1d2d"/>
      <path id="Path_11224" data-name="Path 11224" d="M290.561,183.746c-2.7,14.238-4.384,43.481,3.428,101.369h70.552c.487-10.809-6.313-63.6,4.122-114.577a185.474,185.474,0,0,0-23.6-2.979,261.758,261.758,0,0,0-29.974,0c-3.3.3-6.557.787-9.367,1.293A18.734,18.734,0,0,0,290.561,183.746Z" transform="translate(-266.852 -92.98)" fill="#1e1d2d" opacity="0.4"/>
      <path id="Path_11225" data-name="Path 11225" d="M301.346,188.694l-12.739-3.054c-.393,7.718-.431,17.273.131,29.094C294.6,208.064,302.1,197.648,301.346,188.694Z" transform="translate(-265.847 -76.815)" opacity="0.2"/>
      <path id="Path_11226" data-name="Path 11226" d="M301.99,337.82l.674,15.718h13.189l-.674-15.718Z" transform="translate(-253.901 159.041)" opacity="0.2"/>
      <path id="Path_11227" data-name="Path 11227" d="M360.459,335.68l-12.889,2.791,6.669,14.65,12.889-2.791Z" transform="translate(-214.092 157.172)" opacity="0.2"/>
      <path id="Path_11228" data-name="Path 11228" d="M338.22,154.7c-3.372,12.627-4.721,20.2-12.514,25.441-11.709,7.981-26.321-1.162-26.7-14.5-.412-12.046,5.189-30.686,18.734-33.234A17.835,17.835,0,0,1,338.22,154.7Z" transform="translate(-256.523 -123.579)" fill="#ff8b7b"/>
      <path id="Path_11229" data-name="Path 11229" d="M305.063,153.6c-.637-1.686-3.541-14.744-.805-18.134s33.927-.937,38.536,3.6c7.662,7.494,2.342,14.238-6.032,22.912-6.295,6.519-6.538,13.863-9.723,14.987-5.62,1.873-14.2.112-15.924-5.826S305.063,153.6,305.063,153.6Z" transform="translate(-252.928 -122.017)" fill="#263238"/>
      <path id="Path_11230" data-name="Path 11230" d="M342.249,129.742c-11.016-4.683-31.679.506-42.844-2.192a17.2,17.2,0,0,0,14.256,17.535,147.345,147.345,0,0,0,28.1,2.6C354.014,147.127,351.616,133.732,342.249,129.742Z" transform="translate(-256.168 -127.55)" fill="#263238"/>
      <path id="Path_11231" data-name="Path 11231" d="M323.19,137.9a21,21,0,0,0,11.671-2.229C336.922,140.653,325.588,142.021,323.19,137.9Z" transform="translate(-235.386 -120.458)" fill="#263238"/>
      <path id="Path_11232" data-name="Path 11232" d="M312.124,147.241a14.819,14.819,0,0,1-3.747,8.749c-2.885,3.166-5.882,1.18-6.388-2.66-.45-3.485.487-9.367,4.009-11.053S312.367,143.326,312.124,147.241Z" transform="translate(-253.994 -115.131)" fill="#ff8b7b"/>
      <path id="Path_11233" data-name="Path 11233" d="M304.69,230.158s14.987,100.695,23.174,138.425c8.974,41.308,57.195,177.972,57.195,177.972l23.586-5.114S374.923,430.048,367.43,372.292c-5.808-44.362-17.216-142.172-17.216-142.172Z" transform="translate(-251.543 -37.966)" fill="#01a479"/>
      <path id="Path_11234" data-name="Path 11234" d="M344.571,397.259c-.094,0,4.4,8.543,4.4,8.543l26.527-5.751-2.229-7.981Z" transform="translate(-216.713 103.479)" fill="#263238"/>
      <path id="Path_11235" data-name="Path 11235" d="M311.557,249.356c17.291,3.391,15.455,67.873,13.376,101.051-4.983-23.455-12.289-68.566-17.273-100.582A5.9,5.9,0,0,1,311.557,249.356Z" transform="translate(-248.949 -21.289)" opacity="0.3"/>
      <path id="Path_11236" data-name="Path 11236" d="M291.786,230.175s-1.873,98.522-.375,138.631c1.5,41.8,16.092,178.646,16.092,178.646h22.331s.806-134.416,1.873-175.462c1.087-44.737,6.482-141.891,6.482-141.891Z" transform="translate(-263.649 -37.984)" fill="#01a479"/>
      <path id="Path_11237" data-name="Path 11237" d="M297.443,394.8c-.112,0,1.255,9.255,1.255,9.255h27.145l.749-8.262Z" transform="translate(-257.878 105.864)" fill="#263238"/>
      <path id="Path_11238" data-name="Path 11238" d="M326.1,187.257c6.313,17.029-30.8,37.093-30.8,37.093L279.23,203.743s10.809-21.394,23.923-31.023C319.358,160.842,321.288,174.293,326.1,187.257Z" transform="translate(-273.78 -92.108)" fill="#01a479"/>
    </g>
    <g id="Thinking" transform="translate(615.896 15.655)">
      <ellipse id="Ellipse_68" data-name="Ellipse 68" cx="67.611" cy="43.088" rx="67.611" ry="43.088" transform="translate(31.885)" fill="#a3dece"/>
      <path id="Path_11240" data-name="Path 11240" d="M377.631,115.6a18.94,18.94,0,0,1-18.6-15.718A19.146,19.146,0,0,1,373.472,78.3h0a18.846,18.846,0,0,1,20.27,8.468l43.406-8.955a6.782,6.782,0,0,1,7.943,4.665,6.538,6.538,0,0,1-5,8.074l-1.124.225a1.105,1.105,0,0,0-.787.581,1.18,1.18,0,0,0,0,.974l.768,1.986a2.979,2.979,0,0,1-1.162,3.616,3.559,3.559,0,0,0-1.667,2.641,2.941,2.941,0,0,1-2.267,2.6l-.88.187a2.922,2.922,0,0,1-3.11-1.5,3.653,3.653,0,0,0-6.763,1.405,2.9,2.9,0,0,1-2.248,2.585l-.88.187a2.941,2.941,0,0,1-3.11-1.5,3.747,3.747,0,0,0-2.6-1.761,2.979,2.979,0,0,1-2.623-2.941V97.709a1.161,1.161,0,0,0-1.386-1.087L396.4,99.47a18.865,18.865,0,0,1-14.893,15.736,19.408,19.408,0,0,1-3.878.393Zm-3.747-35.594a17.254,17.254,0,0,0-13.114,19.521,17.067,17.067,0,0,0,33.721-.974v-.674l15.268-3.091a3.035,3.035,0,0,1,3.747,2.848V99.77a1.105,1.105,0,0,0,.9,1.068,5.452,5.452,0,0,1,3.953,2.679,1.087,1.087,0,0,0,1.105.6l.862-.187a1.049,1.049,0,0,0,.787-.974,5.527,5.527,0,0,1,10.3-2.173,1.068,1.068,0,0,0,1.087.6l.9-.187a1.049,1.049,0,0,0,.768-.974,5.433,5.433,0,0,1,2.566-4.028,1.143,1.143,0,0,0,.393-1.349l-.768-1.986a3.016,3.016,0,0,1,2.211-4.047l1.143-.244a4.7,4.7,0,0,0,3.578-5.751,4.89,4.89,0,0,0-5.77-3.316L392.9,88.773l-.337-.581a16.86,16.86,0,0,0-18.584-8.149Zm3.747,28.625a11.519,11.519,0,1,1,2.435-.15h0a11.935,11.935,0,0,1-2.417.187Zm0-22.125a11.241,11.241,0,0,0-2.079.206,10.161,10.161,0,0,0,4.234,19.877h0a10.135,10.135,0,0,0,3.522-18.378,9.966,9.966,0,0,0-5.6-1.667Z" transform="translate(-302.527 -50.818)" fill="#fff"/>
      <ellipse id="Ellipse_69" data-name="Ellipse 69" cx="22.218" cy="14.163" rx="22.218" ry="14.163" transform="translate(22.256 83.122)" fill="#a3dece" opacity="0.6"/>
      <ellipse id="Ellipse_70" data-name="Ellipse 70" cx="9.123" cy="5.808" rx="9.123" ry="5.808" transform="translate(0 105.622)" fill="#a3dece" opacity="0.3"/>
    </g>
  </g>
</svg>
